<svg xmlns="http://www.w3.org/2000/svg" viewBox="0 0 1200 760">
  <defs>
    <linearGradient id="bg" x1="0" x2="1" y1="0" y2="1">
      <stop offset="0%" stop-color="#dff4ee"/>
      <stop offset="100%" stop-color="#f7efe4"/>
    </linearGradient>
  </defs>
  <rect width="1200" height="760" fill="url(#bg)"/>
  <circle cx="995" cy="145" r="96" fill="#89c7b7" opacity=".35"/>
  <circle cx="210" cy="640" r="140" fill="#d2a977" opacity=".18"/>
  <rect x="132" y="132" width="936" height="496" rx="34" fill="#ffffff" opacity=".8"/>
  <path d="M340 472c62-148 188-240 316-240 98 0 200 51 276 148" fill="none" stroke="#0d6e6e" stroke-width="22" stroke-linecap="round"/>
  <circle cx="430" cy="292" r="58" fill="#f0bc7f"/>
  <path d="M377 440c9-69 45-112 100-112s91 43 100 112" fill="#2f7f72"/>
  <circle cx="764" cy="270" r="52" fill="#f0bc7f"/>
  <path d="M718 410c12-59 43-96 92-96s80 37 92 96" fill="#0d6e6e"/>
  <text x="600" y="672" text-anchor="middle" fill="#205c5b" font-family="Arial, sans-serif" font-size="34">Platzhalter für Hero-Bild / Praxisfoto</text>
</svg>
